<svg width="36" height="36" viewBox="0 0 36 36" fill="none" xmlns="http://www.w3.org/2000/svg">
<path d="M26.4855 24.9855L20.121 31.35C19.8427 31.6286 19.5122 31.8496 19.1483 32.0004C18.7845 32.1512 18.3946 32.2288 18.0008 32.2288C17.6069 32.2288 17.217 32.1512 16.8532 32.0004C16.4894 31.8496 16.1588 31.6286 15.8805 31.35L9.51451 24.9855C7.83634 23.3072 6.69351 21.169 6.23054 18.8413C5.76756 16.5135 6.00524 14.1008 6.91351 11.9081C7.82178 9.71541 9.35985 7.8413 11.3332 6.52275C13.3066 5.2042 15.6267 4.50043 18 4.50043C20.3734 4.50043 22.6934 5.2042 24.6668 6.52275C26.6402 7.8413 28.1782 9.71541 29.0865 11.9081C29.9948 14.1008 30.2324 16.5135 29.7695 18.8413C29.3065 21.169 28.1637 23.3072 26.4855 24.9855V24.9855Z" stroke="white" stroke-width="2" stroke-linecap="round" stroke-linejoin="round"/>
<path d="M21.182 19.682C22.0259 18.8381 22.5 17.6935 22.5 16.5C22.5 15.3065 22.0259 14.1619 21.182 13.318C20.3381 12.4741 19.1935 12 18 12C16.8065 12 15.6619 12.4741 14.818 13.318C13.9741 14.1619 13.5 15.3065 13.5 16.5C13.5 17.6935 13.9741 18.8381 14.818 19.682C15.6619 20.5259 16.8065 21 18 21C19.1935 21 20.3381 20.5259 21.182 19.682Z" stroke="white" stroke-width="2" stroke-linecap="round" stroke-linejoin="round"/>
</svg>
