<svg width="36" height="36" viewBox="0 0 36 36" fill="none" xmlns="http://www.w3.org/2000/svg">
<path d="M4.5 28.5V15.105C4.49993 14.6112 4.62173 14.125 4.85462 13.6896C5.0875 13.2542 5.42425 12.883 5.835 12.609L16.335 5.60998C16.828 5.28106 17.4074 5.10553 18 5.10553C18.5926 5.10553 19.172 5.28106 19.665 5.60998L30.165 12.609C30.5757 12.883 30.9125 13.2542 31.1454 13.6896C31.3783 14.125 31.5001 14.6112 31.5 15.105V28.5M4.5 28.5C4.5 29.2956 4.81607 30.0587 5.37868 30.6213C5.94129 31.1839 6.70435 31.5 7.5 31.5H28.5C29.2956 31.5 30.0587 31.1839 30.6213 30.6213C31.1839 30.0587 31.5 29.2956 31.5 28.5M4.5 28.5L14.625 21.75M31.5 28.5L21.375 21.75M14.625 21.75L4.5 15M14.625 21.75L16.335 22.89C16.828 23.2189 17.4074 23.3944 18 23.3944C18.5926 23.3944 19.172 23.2189 19.665 22.89L21.375 21.75M21.375 21.75L31.5 15" stroke="white" stroke-width="2" stroke-linecap="round" stroke-linejoin="round"/>
</svg>
