<svg width="41" height="41" viewBox="0 0 41 41" fill="none" xmlns="http://www.w3.org/2000/svg">
<path d="M39.3082 0.958496H2.5082C1.6232 0.958496 0.908203 1.6735 0.908203 2.5585V39.3585C0.908203 40.2435 1.6232 40.9585 2.5082 40.9585H39.3082C40.1932 40.9585 40.9082 40.2435 40.9082 39.3585V2.5585C40.9082 1.6735 40.1932 0.958496 39.3082 0.958496ZM34.6882 12.6335H31.4932C28.9882 12.6335 28.5032 13.8235 28.5032 15.5735V19.4285H34.4832L33.7032 25.4635H28.5032V40.9585H22.2682V25.4685H17.0532V19.4285H22.2682V14.9785C22.2682 9.8135 25.4232 6.9985 30.0332 6.9985C32.2432 6.9985 34.1382 7.1635 34.6932 7.2385V12.6335H34.6882Z" fill="white"/>
</svg>
