<svg width="41" height="41" viewBox="0 0 41 41" fill="none" xmlns="http://www.w3.org/2000/svg">
<path d="M20.9028 14.289C17.2304 14.289 14.2334 17.286 14.2334 20.9585C14.2334 24.631 17.2304 27.628 20.9028 27.628C24.5752 27.628 27.5722 24.631 27.5722 20.9585C27.5722 17.286 24.5752 14.289 20.9028 14.289ZM40.906 20.9585C40.906 18.1966 40.931 15.4598 40.7759 12.7029C40.6208 9.50075 39.8903 6.65883 37.5488 4.31725C35.2022 1.97067 32.3654 1.24518 29.1633 1.09007C26.4014 0.934967 23.6646 0.959984 20.9078 0.959984C18.146 0.959984 15.4092 0.934967 12.6524 1.09007C9.4503 1.24518 6.60844 1.97567 4.2669 4.31725C1.92036 6.66384 1.19488 9.50075 1.03978 12.7029C0.884675 15.4648 0.909691 18.2016 0.909691 20.9585C0.909691 23.7154 0.884675 26.4572 1.03978 29.2141C1.19488 32.4162 1.92536 35.2582 4.2669 37.5997C6.61344 39.9463 9.4503 40.6718 12.6524 40.8269C15.4142 40.982 18.151 40.957 20.9078 40.957C23.6696 40.957 26.4064 40.982 29.1633 40.8269C32.3654 40.6718 35.2072 39.9413 37.5488 37.5997C39.8953 35.2532 40.6208 32.4162 40.7759 29.2141C40.936 26.4572 40.906 23.7204 40.906 20.9585ZM20.9028 31.2204C15.2241 31.2204 10.6411 26.6373 10.6411 20.9585C10.6411 15.2797 15.2241 10.6966 20.9028 10.6966C26.5816 10.6966 31.1646 15.2797 31.1646 20.9585C31.1646 26.6373 26.5816 31.2204 20.9028 31.2204ZM31.5848 12.6729C30.259 12.6729 29.1883 11.6022 29.1883 10.2763C29.1883 8.95038 30.259 7.87966 31.5848 7.87966C32.9107 7.87966 33.9814 8.95038 33.9814 10.2763C33.9818 10.5911 33.9201 10.9029 33.7998 11.1939C33.6795 11.4848 33.503 11.7492 33.2804 11.9718C33.0577 12.1945 32.7934 12.371 32.5024 12.4913C32.2115 12.6116 31.8997 12.6733 31.5848 12.6729Z" fill="white"/>
</svg>
