<svg width="41" height="41" viewBox="0 0 41 41" fill="none" xmlns="http://www.w3.org/2000/svg">
<path d="M39.3082 0.958496H2.5082C1.6232 0.958496 0.908203 1.6735 0.908203 2.5585V39.3585C0.908203 40.2435 1.6232 40.9585 2.5082 40.9585H39.3082C40.1932 40.9585 40.9082 40.2435 40.9082 39.3585V2.5585C40.9082 1.6735 40.1932 0.958496 39.3082 0.958496ZM12.7732 35.0435H6.8382V15.9535H12.7732V35.0435ZM9.8082 13.3435C9.12784 13.3435 8.46275 13.1417 7.89704 12.7638C7.33134 12.3858 6.89042 11.8485 6.63006 11.2199C6.36969 10.5913 6.30157 9.89968 6.4343 9.23239C6.56704 8.56509 6.89466 7.95214 7.37576 7.47105C7.85685 6.98996 8.4698 6.66233 9.13709 6.52959C9.80439 6.39686 10.4961 6.46498 11.1246 6.72535C11.7532 6.98572 12.2905 7.42663 12.6685 7.99233C13.0465 8.55804 13.2482 9.22313 13.2482 9.9035C13.2432 11.8035 11.7032 13.3435 9.8082 13.3435ZM34.9932 35.0435H29.0632V25.7585C29.0632 23.5435 29.0232 20.6985 25.9782 20.6985C22.8932 20.6985 22.4182 23.1085 22.4182 25.5985V35.0435H16.4932V15.9535H22.1832V18.5635H22.2632C23.0532 17.0635 24.9882 15.4785 27.8782 15.4785C33.8882 15.4785 34.9932 19.4335 34.9932 24.5735V35.0435Z" fill="white"/>
</svg>
