<svg width="36" height="36" viewBox="0 0 36 36" fill="none" xmlns="http://www.w3.org/2000/svg">
<path d="M5.37868 5.37868C4.81607 5.94129 4.5 6.70435 4.5 7.5V9C4.5 21.426 14.574 31.5 27 31.5H28.5C29.2956 31.5 30.0587 31.1839 30.6213 30.6213C31.1839 30.0587 31.5 29.2956 31.5 28.5V23.5815C31.5001 23.2666 31.401 22.9596 31.2169 22.7041C31.0327 22.4486 30.7728 22.2575 30.474 22.158L23.7345 19.911C23.392 19.7971 23.0199 19.8106 22.6865 19.9489C22.3531 20.0872 22.0808 20.3411 21.9195 20.664L20.2245 24.0495C16.5517 22.39 13.61 19.4483 11.9505 15.7755L15.336 14.0805C15.6589 13.9192 15.9128 13.6468 16.0511 13.3135C16.1894 12.9801 16.2029 12.608 16.089 12.2655L13.842 5.526C13.7426 5.22743 13.5517 4.96771 13.2965 4.78357C13.0413 4.59944 12.7347 4.50024 12.42 4.5H7.5C6.70435 4.5 5.94129 4.81607 5.37868 5.37868Z" stroke="white" stroke-width="2" stroke-linecap="round" stroke-linejoin="round"/>
</svg>
