<svg width="41" height="41" viewBox="0 0 41 41" fill="none" xmlns="http://www.w3.org/2000/svg">
<path d="M20.9082 0.958496C9.86356 0.958496 0.908203 9.91385 0.908203 20.9585C0.908203 32.0031 9.86356 40.9585 20.9082 40.9585C31.9528 40.9585 40.9082 32.0031 40.9082 20.9585C40.9082 9.91385 31.9528 0.958496 20.9082 0.958496ZM30.5198 16.0344C30.5332 16.2442 30.5332 16.463 30.5332 16.6772C30.5332 23.2308 25.5421 30.7799 16.4216 30.7799C13.6091 30.7799 11.002 29.963 8.80552 28.5567C9.20731 28.6014 9.59124 28.6192 10.002 28.6192C12.3234 28.6192 14.4573 27.8335 16.1582 26.5031C13.9796 26.4585 12.1493 25.0299 11.5243 23.0656C12.2877 23.1772 12.9752 23.1772 13.7609 22.9764C12.6391 22.7485 11.6309 22.1392 10.9074 21.2522C10.1839 20.3651 9.78984 19.255 9.79213 18.1103V18.0478C10.4484 18.4183 11.2207 18.646 12.0287 18.6772C11.3495 18.2245 10.7924 17.6112 10.4069 16.8917C10.0214 16.1721 9.81947 15.3686 9.81892 14.5522C9.81892 13.6281 10.06 12.7844 10.493 12.0522C11.7381 13.585 13.2918 14.8386 15.0531 15.7316C16.8144 16.6245 18.744 17.1369 20.7162 17.2353C20.0153 13.8647 22.5332 11.1371 25.56 11.1371C26.9886 11.1371 28.2743 11.7353 29.1805 12.6996C30.3011 12.4897 31.3725 12.0701 32.3278 11.5076C31.9573 12.6549 31.1805 13.6237 30.1493 14.2353C31.1493 14.1281 32.1136 13.8514 33.0064 13.463C32.3323 14.454 31.4886 15.3335 30.5198 16.0344Z" fill="white"/>
</svg>
