<svg width="41" height="41" viewBox="0 0 41 41" fill="none" xmlns="http://www.w3.org/2000/svg">
<rect x="0.908203" y="0.958496" width="40" height="40" fill="white"/>
<path fill-rule="evenodd" clip-rule="evenodd" d="M12.5745 7.62518H8.40788V13.4585H12.5745V18.4585H6.74121V24.2918H12.5745V36.7918H18.4079V24.2918H28.4339C29.2046 24.2918 29.2412 24.3529 29.2412 25.1252V30.1252C29.2412 30.8974 29.2046 30.9585 28.4339 30.9585H22.5745C22.5745 34.1802 25.2123 36.7918 28.4339 36.7918C32.5745 36.7918 35.0745 35.1252 35.0745 30.9585V25.1252C35.0745 20.9585 31.7412 18.4585 27.5745 18.4585V14.2918C27.5745 9.91581 24.442 7.62518 20.0745 7.62518H19.2412C18.781 7.62518 18.4079 7.25209 18.4079 6.79185V5.12518H12.5745V7.62518ZM20.9079 18.4585C21.3681 18.4585 21.7412 18.0854 21.7412 17.6252V14.2918C21.7412 13.5196 21.4672 13.4585 20.9079 13.4585H18.4079V17.6252C18.4079 18.0854 18.781 18.4585 19.2412 18.4585H20.9079Z" fill="#F36D26"/>
<path d="M35.0745 9.70852C35.0745 11.3193 33.7687 12.6252 32.1579 12.6252C31.3418 12.6252 29.2412 12.6252 29.2412 12.6252C29.2412 12.6252 29.2412 10.5032 29.2412 9.70852C29.2412 8.09769 30.547 6.79185 32.1579 6.79185C33.7687 6.79185 35.0745 8.09769 35.0745 9.70852Z" fill="#F36D26"/>
</svg>
