<svg width="420" height="99" viewBox="0 0 420 99" fill="none" xmlns="http://www.w3.org/2000/svg">
<path d="M274.958 77.3438V59.895H276.724L287.646 74.2995H287.024V59.895H289.189V77.3438H287.447L276.525 62.9145H277.097V77.3438H274.958Z" fill="#05224F"/>
<path d="M263.253 77.5665C262.009 77.5665 260.889 77.3603 259.894 76.9477C258.899 76.5352 258.045 75.933 257.331 75.141C256.618 74.349 256.071 73.4085 255.689 72.3195C255.308 71.214 255.117 69.9765 255.117 68.607C255.117 67.2375 255.308 66.0082 255.689 64.9193C256.071 63.8137 256.61 62.8732 257.307 62.0977C258.02 61.3057 258.874 60.7035 259.869 60.291C260.881 59.8785 262.009 59.6722 263.253 59.6722C264.497 59.6722 265.616 59.8785 266.611 60.291C267.606 60.7035 268.461 61.2975 269.174 62.073C269.887 62.8485 270.426 63.789 270.791 64.8945C271.172 65.9835 271.363 67.2127 271.363 68.5822C271.363 69.9517 271.172 71.1892 270.791 72.2947C270.409 73.4003 269.862 74.349 269.149 75.141C268.452 75.933 267.606 76.5352 266.611 76.9477C265.616 77.3603 264.497 77.5665 263.253 77.5665ZM263.253 75.537C264.447 75.537 265.467 75.2647 266.313 74.7203C267.159 74.1758 267.805 73.3838 268.253 72.3443C268.718 71.3047 268.95 70.059 268.95 68.607C268.95 67.1385 268.726 65.8928 268.278 64.8698C267.83 63.8302 267.184 63.0465 266.338 62.5185C265.492 61.974 264.463 61.7018 263.253 61.7018C262.058 61.7018 261.03 61.974 260.168 62.5185C259.322 63.0465 258.675 63.8302 258.227 64.8698C257.779 65.8928 257.555 67.1385 257.555 68.607C257.555 70.059 257.779 71.3047 258.227 72.3443C258.675 73.3838 259.322 74.1758 260.168 74.7203C261.03 75.2647 262.058 75.537 263.253 75.537Z" fill="#05224F"/>
<path d="M249.253 77.3438V59.895H251.566V77.3438H249.253Z" fill="#05224F"/>
<path d="M238.42 77.3438V61.8503H232.125V59.895H247.028V61.8503H240.734V77.3438H238.42Z" fill="#05224F"/>
<path d="M216.072 77.3438L223.835 59.895H225.8L233.562 77.3438H231.199L229.059 72.3937L230.129 72.9877H219.481L220.551 72.3937L218.436 77.3438H216.072ZM224.78 62.4938L220.899 71.6265L220.302 71.1068H229.308L228.736 71.6265L224.83 62.4938H224.78Z" fill="#05224F"/>
<path d="M211.303 77.3438V59.895H213.616V77.3438H211.303Z" fill="#05224F"/>
<path d="M202.251 77.5665C200.509 77.5665 199.017 77.2035 197.773 76.4775C196.529 75.7515 195.567 74.7202 194.887 73.3838C194.223 72.0307 193.891 70.4385 193.891 68.607C193.891 66.7755 194.223 65.1915 194.887 63.855C195.567 62.5185 196.529 61.4872 197.773 60.7612C199.017 60.0352 200.509 59.6722 202.251 59.6722C203.445 59.6722 204.556 59.862 205.585 60.2415C206.63 60.6045 207.5 61.149 208.197 61.875L207.351 63.7065C206.588 63.03 205.8 62.535 204.988 62.2215C204.175 61.908 203.279 61.7512 202.301 61.7512C200.377 61.7512 198.9 62.3452 197.872 63.5332C196.86 64.7212 196.355 66.4125 196.355 68.607C196.355 70.8015 196.86 72.501 197.872 73.7055C198.9 74.8935 200.377 75.4875 202.301 75.4875C203.279 75.4875 204.175 75.3307 204.988 75.0173C205.8 74.7038 206.588 74.2087 207.351 73.5322L208.197 75.3638C207.5 76.0732 206.63 76.6178 205.585 76.9973C204.556 77.3768 203.445 77.5665 202.251 77.5665Z" fill="#05224F"/>
<path d="M182.833 77.5665C181.589 77.5665 180.47 77.3603 179.474 76.9477C178.479 76.5352 177.625 75.933 176.912 75.141C176.199 74.349 175.651 73.4085 175.27 72.3195C174.888 71.214 174.698 69.9765 174.698 68.607C174.698 67.2375 174.888 66.0082 175.27 64.9193C175.651 63.8137 176.19 62.8732 176.887 62.0977C177.6 61.3057 178.454 60.7035 179.45 60.291C180.461 59.8785 181.589 59.6722 182.833 59.6722C184.077 59.6722 185.197 59.8785 186.192 60.291C187.187 60.7035 188.041 61.2975 188.754 62.073C189.468 62.8485 190.007 63.789 190.371 64.8945C190.753 65.9835 190.944 67.2127 190.944 68.5822C190.944 69.9517 190.753 71.1892 190.371 72.2947C189.99 73.4003 189.443 74.349 188.729 75.141C188.033 75.933 187.187 76.5352 186.192 76.9477C185.197 77.3603 184.077 77.5665 182.833 77.5665ZM182.833 75.537C184.027 75.537 185.047 75.2647 185.893 74.7203C186.739 74.1758 187.386 73.3838 187.834 72.3443C188.298 71.3047 188.53 70.059 188.53 68.607C188.53 67.1385 188.307 65.8928 187.859 64.8698C187.411 63.8302 186.764 63.0465 185.918 62.5185C185.072 61.974 184.044 61.7018 182.833 61.7018C181.639 61.7018 180.611 61.974 179.748 62.5185C178.902 63.0465 178.255 63.8302 177.808 64.8698C177.36 65.8928 177.136 67.1385 177.136 68.607C177.136 70.059 177.36 71.3047 177.808 72.3443C178.255 73.3838 178.902 74.1758 179.748 74.7203C180.611 75.2647 181.639 75.537 182.833 75.537Z" fill="#05224F"/>
<path d="M165.712 77.5665C164.8 77.5665 163.938 77.4922 163.125 77.3438C162.312 77.1787 161.566 76.9477 160.886 76.6507C160.206 76.3372 159.592 75.9578 159.045 75.5123L159.841 73.6807C160.388 74.0932 160.96 74.448 161.558 74.745C162.155 75.0255 162.793 75.24 163.473 75.3885C164.153 75.5205 164.9 75.5865 165.712 75.5865C167.172 75.5865 168.242 75.3225 168.922 74.7945C169.618 74.2665 169.967 73.5735 169.967 72.7155C169.967 72.237 169.859 71.8327 169.643 71.5027C169.428 71.1727 169.079 70.8923 168.598 70.6612C168.117 70.4303 167.487 70.2405 166.707 70.092L164.07 69.5475C162.511 69.2175 161.342 68.673 160.562 67.914C159.799 67.155 159.418 66.1403 159.418 64.8698C159.418 63.8302 159.692 62.9227 160.239 62.1472C160.803 61.3552 161.566 60.7448 162.528 60.3158C163.506 59.8867 164.634 59.6722 165.911 59.6722C166.707 59.6722 167.462 59.7547 168.175 59.9198C168.889 60.0682 169.552 60.3075 170.166 60.6375C170.779 60.951 171.318 61.3387 171.783 61.8008L171.012 63.558C170.282 62.898 169.502 62.4195 168.673 62.1225C167.844 61.809 166.915 61.6522 165.886 61.6522C165.041 61.6522 164.302 61.7842 163.672 62.0482C163.059 62.3122 162.578 62.6835 162.229 63.162C161.898 63.624 161.732 64.1685 161.732 64.7955C161.732 65.5545 161.964 66.1485 162.428 66.5775C162.893 67.0065 163.672 67.3365 164.767 67.5675L167.379 68.0872C169.038 68.4337 170.265 68.97 171.061 69.696C171.874 70.4055 172.28 71.3625 172.28 72.567C172.28 73.557 172.015 74.4315 171.484 75.1905C170.953 75.933 170.191 76.5187 169.195 76.9477C168.217 77.3603 167.056 77.5665 165.712 77.5665Z" fill="#05224F"/>
<path d="M150.333 77.5665C149.421 77.5665 148.558 77.4922 147.746 77.3438C146.933 77.1787 146.186 76.9477 145.506 76.6507C144.826 76.3372 144.213 75.9578 143.665 75.5123L144.462 73.6807C145.009 74.0932 145.581 74.448 146.178 74.745C146.775 75.0255 147.414 75.24 148.094 75.3885C148.774 75.5205 149.52 75.5865 150.333 75.5865C151.793 75.5865 152.862 75.3225 153.542 74.7945C154.239 74.2665 154.587 73.5735 154.587 72.7155C154.587 72.237 154.479 71.8327 154.264 71.5027C154.048 71.1727 153.7 70.8923 153.219 70.6612C152.738 70.4303 152.108 70.2405 151.328 70.092L148.691 69.5475C147.132 69.2175 145.963 68.673 145.183 67.914C144.42 67.155 144.039 66.1403 144.039 64.8698C144.039 63.8302 144.312 62.9227 144.86 62.1472C145.424 61.3552 146.186 60.7448 147.148 60.3158C148.127 59.8867 149.255 59.6722 150.532 59.6722C151.328 59.6722 152.083 59.7547 152.796 59.9198C153.509 60.0682 154.173 60.3075 154.786 60.6375C155.4 60.951 155.939 61.3387 156.403 61.8008L155.632 63.558C154.902 62.898 154.123 62.4195 153.294 62.1225C152.464 61.809 151.535 61.6522 150.507 61.6522C149.661 61.6522 148.923 61.7842 148.293 62.0482C147.679 62.3122 147.198 62.6835 146.85 63.162C146.518 63.624 146.352 64.1685 146.352 64.7955C146.352 65.5545 146.585 66.1485 147.049 66.5775C147.513 67.0065 148.293 67.3365 149.388 67.5675L152 68.0872C153.658 68.4337 154.886 68.97 155.682 69.696C156.495 70.4055 156.901 71.3625 156.901 72.567C156.901 73.557 156.636 74.4315 156.105 75.1905C155.574 75.933 154.811 76.5187 153.816 76.9477C152.837 77.3603 151.676 77.5665 150.333 77.5665Z" fill="#05224F"/>
<path d="M124.768 77.3438L132.53 59.895H134.496L142.258 77.3438H139.895L137.755 72.3937L138.825 72.9877H128.177L129.246 72.3937L127.132 77.3438H124.768ZM133.476 62.4938L129.595 71.6265L128.998 71.1068H138.004L137.432 71.6265L133.526 62.4938H133.476Z" fill="#05224F"/>
<path d="M404.513 40.2188V18.4078H420V22.8009H409.986V26.9466H419.285V31.3397H409.986V35.8256H420V40.2188H404.513Z" fill="#05224F"/>
<path d="M382.555 40.2188V18.4078H393.098C395.586 18.4078 397.504 19.0162 398.851 20.2331C400.219 21.4294 400.904 23.1 400.904 25.245C400.904 26.6269 400.593 27.8334 399.971 28.8647C399.369 29.8753 398.488 30.6591 397.327 31.2159C396.187 31.7522 394.777 32.0203 393.098 32.0203L393.347 31.4634H394.839C395.731 31.4634 396.519 31.68 397.203 32.1131C397.887 32.5256 398.457 33.165 398.913 34.0312L402.334 40.2188H396.052L392.258 33.2887C392.092 32.9794 391.895 32.7422 391.667 32.5772C391.439 32.4122 391.18 32.2884 390.89 32.2059C390.62 32.1234 390.32 32.0822 389.988 32.0822H388.278V40.2188H382.555ZM388.278 28.0603H392.072C393.17 28.0603 394.01 27.8438 394.591 27.4106C395.171 26.9775 395.461 26.3072 395.461 25.3997C395.461 24.5334 395.171 23.8837 394.591 23.4506C394.01 22.9969 393.17 22.77 392.072 22.77H388.278V28.0603Z" fill="#05224F"/>
<path d="M368.995 40.5591C365.802 40.5591 363.356 39.7547 361.656 38.1459C359.976 36.5372 359.137 34.1344 359.137 30.9375V18.4078H364.859V30.9994C364.859 32.5875 365.211 33.7838 365.916 34.5881C366.621 35.3925 367.647 35.7947 368.995 35.7947C370.322 35.7947 371.338 35.3925 372.043 34.5881C372.747 33.7838 373.1 32.5875 373.1 30.9994V18.4078H378.729V30.9375C378.729 34.1344 377.899 36.5372 376.241 38.1459C374.603 39.7547 372.188 40.5591 368.995 40.5591Z" fill="#05224F"/>
<path d="M344.441 40.2188V23.0484H337.475V18.4078H357.129V23.0484H350.163V40.2188H344.441Z" fill="#05224F"/>
<path d="M325.718 40.5591C322.525 40.5591 320.079 39.7547 318.378 38.1459C316.699 36.5372 315.859 34.1344 315.859 30.9375V18.4078H321.582V30.9994C321.582 32.5875 321.934 33.7838 322.639 34.5881C323.344 35.3925 324.37 35.7947 325.718 35.7947C327.045 35.7947 328.061 35.3925 328.765 34.5881C329.47 33.7838 329.823 32.5875 329.823 30.9994V18.4078H335.452V30.9375C335.452 34.1344 334.622 36.5372 332.964 38.1459C331.326 39.7547 328.911 40.5591 325.718 40.5591Z" fill="#05224F"/>
<path d="M298.006 40.2188V18.4078H313.306V22.8009H303.728V27.1941H312.622V31.5562H303.728V40.2188H298.006Z" fill="#05224F"/>
<path d="M270.005 40.2188V18.4078H285.492V22.8009H275.478V26.9466H284.776V31.3397H275.478V35.8256H285.492V40.2188H270.005Z" fill="#05224F"/>
<path d="M255.153 40.2188V23.0484H248.187V18.4078H267.842V23.0484H260.875V40.2188H255.153Z" fill="#05224F"/>
<path d="M226.089 40.2188L236.351 18.4078H240.86L251.123 40.2188H245.401L242.82 34.2169L244.997 35.7947H232.184L234.392 34.2169L231.811 40.2188H226.089ZM238.559 24.3478L234.952 32.9175L234.081 31.4325H243.131L242.26 32.9175L238.621 24.3478H238.559Z" fill="#05224F"/>
<path d="M214.993 40.2188L205.01 18.4078H211.106L218.258 34.9284H216.517L223.67 18.4078H229.547L219.533 40.2188H214.993Z" fill="#05224F"/>
<path d="M193.781 40.5591C192.122 40.5591 190.609 40.2909 189.241 39.7547C187.872 39.2184 186.691 38.4553 185.695 37.4653C184.721 36.4547 183.964 35.2584 183.425 33.8766C182.907 32.4947 182.648 30.9684 182.648 29.2978C182.648 27.6066 182.907 26.07 183.425 24.6881C183.964 23.3062 184.721 22.1203 185.695 21.1303C186.691 20.1403 187.872 19.3875 189.241 18.8719C190.609 18.3356 192.122 18.0675 193.781 18.0675C195.44 18.0675 196.953 18.3356 198.321 18.8719C199.69 19.3875 200.861 20.1403 201.836 21.1303C202.831 22.1203 203.588 23.3062 204.106 24.6881C204.645 26.0494 204.914 27.5756 204.914 29.2669C204.914 30.9788 204.645 32.5256 204.106 33.9075C203.588 35.2894 202.831 36.4856 201.836 37.4963C200.861 38.4862 199.69 39.2494 198.321 39.7856C196.953 40.3013 195.44 40.5591 193.781 40.5591ZM193.781 35.7947C194.88 35.7947 195.813 35.5369 196.58 35.0212C197.347 34.5056 197.938 33.7631 198.353 32.7938C198.767 31.8244 198.975 30.6591 198.975 29.2978C198.975 27.9366 198.767 26.7712 198.353 25.8019C197.959 24.8325 197.368 24.1003 196.58 23.6053C195.813 23.0897 194.88 22.8319 193.781 22.8319C192.703 22.8319 191.77 23.0897 190.982 23.6053C190.215 24.1003 189.624 24.8325 189.21 25.8019C188.795 26.7712 188.588 27.9366 188.588 29.2978C188.588 30.6591 188.784 31.8244 189.178 32.7938C189.593 33.7631 190.194 34.5056 190.982 35.0212C191.77 35.5369 192.703 35.7947 193.781 35.7947Z" fill="#05224F"/>
<path d="M159.64 40.2188V18.4078H163.839L174.786 31.9894H173.915V18.4078H179.202V40.2188H175.034L164.088 26.6063H164.958V40.2188H159.64Z" fill="#05224F"/>
<path d="M136.073 40.2188V18.4078H140.272L151.218 31.9894H150.348V18.4078H155.635V40.2188H151.467L140.521 26.6063H141.391V40.2188H136.073Z" fill="#05224F"/>
<path d="M126.385 40.2188V18.4078H132.108V40.2188H126.385Z" fill="#05224F"/>
<path d="M99.5161 49.5C99.5161 76.8381 77.2386 99 49.758 99C22.2774 99 0 76.8381 0 49.5C0 22.1619 22.2774 0 49.758 0C77.2386 0 99.5161 22.1619 99.5161 49.5Z" fill="#05224F"/>
<path d="M62.2985 55.8313L65.77 40.2906C42.0479 43.1685 13.6975 56.9825 35.6838 83.4592C29.6665 64.5802 50.9197 57.1743 62.2985 55.8313Z" fill="white"/>
<path d="M68.6625 33.3836L72.3468 16.1162C45.5193 18.4185 30.4762 43.1685 32.2119 44.8953C41.4692 36.8371 61.3338 33.3836 68.6625 33.3836Z" fill="white"/>
</svg>
