<svg width="46" height="65" viewBox="0 0 46 65" fill="none" xmlns="http://www.w3.org/2000/svg">
<path d="M44 41.3945C43.9984 40.0689 43.4712 38.798 42.5338 37.8606C41.5965 36.9233 40.3256 36.396 39 36.3945H37.3652C37.9892 35.127 38.4408 33.7817 38.7081 32.3945H41C42.1484 32.3954 43.262 32.0006 44.1534 31.2767C45.0449 30.5528 45.6597 29.5439 45.8945 28.4197C46.1292 27.2956 45.9696 26.125 45.4424 25.1048C44.9153 24.0846 44.0527 23.2771 43 22.8183V18.3945C43 14.6367 40.6113 10.3661 36.8896 8.91887L39.707 6.10146C39.8469 5.96163 39.9421 5.78346 39.9807 5.58949C40.0193 5.39552 39.9995 5.19447 39.9238 5.01175C39.8481 4.82903 39.72 4.67286 39.5555 4.56298C39.3911 4.45311 39.1978 4.39446 39 4.39446H34.5L31.7998 0.79485C31.6824 0.638183 31.5217 0.519421 31.3374 0.453296C31.1532 0.38717 30.9536 0.376592 30.7633 0.422874C30.5731 0.469155 30.4007 0.570259 30.2674 0.713644C30.1342 0.857029 30.0459 1.03638 30.0137 1.22946L29.3379 5.26071C26.2145 3.6768 22.684 3.07783 19.2129 3.54294C14.9461 4.17208 11.0524 6.32796 8.25466 9.61041C5.45693 12.8929 3.94517 17.0789 4 21.3915V22.4955C2.78601 22.7434 1.70729 23.4332 0.972971 24.4312C0.238647 25.4292 -0.0989723 26.6642 0.0255624 27.897C0.150097 29.1298 0.727915 30.2724 1.647 31.1033C2.56609 31.9343 3.76097 32.3944 5 32.3945H7.29187C7.5592 33.7817 8.01087 35.127 8.63487 36.3945H7C5.6744 36.396 4.40353 36.9233 3.46618 37.8606C2.52884 38.798 2.00156 40.0689 2 41.3945V47.9577C0.692685 50.2184 0.00294485 52.7831 1.62651e-07 55.3945V63.3945C-7.47669e-05 63.5258 0.0257398 63.6559 0.075968 63.7772C0.126196 63.8986 0.199853 64.0089 0.292727 64.1017C0.3856 64.1946 0.495868 64.2683 0.617228 64.3185C0.738587 64.3687 0.868657 64.3945 1 64.3945H45C45.1313 64.3945 45.2614 64.3687 45.3828 64.3185C45.5041 64.2683 45.6144 64.1946 45.7073 64.1017C45.8001 64.0089 45.8738 63.8986 45.924 63.7772C45.9743 63.6559 46.0001 63.5258 46 63.3945V55.3945C45.9971 52.7831 45.3073 50.2184 44 47.9577V41.3945ZM39 38.3945C39.7954 38.3953 40.5579 38.7117 41.1204 39.2741C41.6828 39.8365 41.9991 40.5991 42 41.3945V45.2172C40.9678 44.1047 39.7735 43.1545 38.4575 42.3987C38.4271 42.3799 38.3955 42.3628 38.3632 42.3475C37.0741 41.6179 35.6829 41.0856 34.236 40.7685C34.9714 40.0425 35.6352 39.2475 36.2184 38.3945H39ZM13 42.5559V62.3945H9V43.8669C10.251 43.2101 11.6029 42.767 13 42.5559ZM9 29.3945V24.3945H9.71C15.9065 24.4037 22.0367 23.1188 27.708 20.622C28.7429 21.8036 30.0177 22.7512 31.4475 23.4017C32.8773 24.0522 34.4292 24.3906 36 24.3945H37V29.3945C37 33.1075 35.525 36.6684 32.8995 39.294C30.274 41.9195 26.713 43.3945 23 43.3945C19.287 43.3945 15.726 41.9195 13.1005 39.294C10.475 36.6684 9 33.1075 9 29.3945ZM26 45.3945C26 46.1901 25.6839 46.9532 25.1213 47.5158C24.5587 48.0784 23.7956 48.3945 23 48.3945C22.2044 48.3945 21.4413 48.0784 20.8787 47.5158C20.3161 46.9532 20 46.1901 20 45.3945C20.0043 45.2982 20.0135 45.2022 20.0276 45.1068C21.9906 45.4903 24.0094 45.4903 25.9724 45.1068C25.9865 45.2022 25.9957 45.2982 26 45.3945ZM15 43.2295C15.9736 43.7978 17.0048 44.2609 18.0763 44.6111C18.0297 44.8697 18.0042 45.1317 18 45.3945C18.0019 46.0922 18.1508 46.7818 18.4368 47.4182C18.7229 48.0547 19.1397 48.6238 19.6603 49.0885L17.1694 62.3945H15V43.2295ZM21.4991 50.1388C22.4707 50.4796 23.5293 50.4796 24.5009 50.1388L26.795 62.3945H19.205L21.4991 50.1388ZM26.3397 49.0885C26.8603 48.6238 27.2771 48.0547 27.5632 47.4182C27.8492 46.7818 27.9981 46.0922 28 45.3945C27.9958 45.1317 27.9703 44.8697 27.9236 44.6111C28.9952 44.2609 30.0264 43.7978 31 43.2295V62.3945H28.8306L26.3397 49.0885ZM33 42.5606C34.397 42.7768 35.7485 43.2227 37 43.8801V62.3945H33V42.5606ZM44 27.3945C43.9991 28.1898 43.6828 28.9524 43.1204 29.5148C42.5579 30.0772 41.7954 30.3936 41 30.3945H38.9493C38.97 30.0621 39 29.732 39 29.3945V24.3945H41C41.7954 24.3953 42.5579 24.7117 43.1204 25.2741C43.6828 25.8365 43.9991 26.5991 44 27.3945ZM6 21.3915C5.94429 17.5646 7.27881 13.8474 9.75591 10.9298C12.233 8.01212 15.6845 6.09221 19.4697 5.5263C22.9833 5.05781 26.5508 5.81781 29.5684 7.67766C29.708 7.76302 29.8664 7.81281 30.0298 7.82265C30.1931 7.8325 30.3564 7.80211 30.5052 7.73414C30.6541 7.66617 30.784 7.5627 30.8835 7.43282C30.9831 7.30293 31.0492 7.1506 31.0762 6.98919L31.6006 3.86126L33.2002 5.99407C33.2933 6.11834 33.414 6.21923 33.5528 6.28872C33.6916 6.35822 33.8447 6.39442 34 6.39446H36.5859L34.2334 8.747C34.1006 8.87969 34.0078 9.0471 33.9657 9.23006C33.9235 9.41302 33.9338 9.60415 33.9952 9.78156C34.0567 9.95897 34.1669 10.1155 34.3131 10.2332C34.4594 10.3509 34.6358 10.4251 34.8223 10.4472C38.1133 10.8368 41 14.5507 41 18.3945V22.3945H36C34.6033 22.3911 33.2264 22.0642 31.9772 21.4395C30.728 20.8148 29.6404 19.9093 28.7998 18.7939C28.6632 18.6121 28.4687 18.4822 28.2484 18.4258C28.0281 18.3693 27.7951 18.3896 27.5879 18.4833L27.084 18.7109C21.6166 21.1484 15.6961 22.4037 9.71 22.3945H6V21.3915ZM5 30.3945C4.20435 30.3945 3.44129 30.0784 2.87868 29.5158C2.31607 28.9532 2 28.1901 2 27.3945C2 26.5988 2.31607 25.8357 2.87868 25.2731C3.44129 24.7105 4.20435 24.3945 5 24.3945H7V29.3945C7 29.732 7.03 30.0621 7.05066 30.3945H5ZM4 41.3945C4.00087 40.5991 4.31722 39.8365 4.87964 39.2741C5.44206 38.7117 6.20462 38.3953 7 38.3945H9.78162C10.3648 39.2475 11.0286 40.0425 11.764 40.7685C10.3171 41.0857 8.9259 41.6179 7.6368 42.3475C7.6045 42.3628 7.57308 42.3799 7.54268 42.3986C6.2266 43.1544 5.03223 44.1047 4 45.2172V41.3945ZM2 55.3945C2.00364 53.4213 2.45563 51.4747 3.32181 49.7018C4.18799 47.9289 5.44572 46.376 7 45.1605V62.3945H2V55.3945ZM44 62.3945H39V45.1719C40.5544 46.3848 41.8124 47.9356 42.6787 49.7067C43.5449 51.4778 43.9968 53.4228 44 55.3945V62.3945Z" fill="white"/>
<path d="M29 31.3945H17C16.8687 31.3945 16.7386 31.4203 16.6172 31.4705C16.4959 31.5207 16.3856 31.5944 16.2927 31.6873C16.1999 31.7801 16.1262 31.8904 16.076 32.0118C16.0257 32.1331 15.9999 32.2632 16 32.3945C16 34.251 16.7375 36.0315 18.0503 37.3443C19.363 38.657 21.1435 39.3945 23 39.3945C24.8565 39.3945 26.637 38.657 27.9497 37.3443C29.2625 36.0315 30 34.251 30 32.3945C30.0001 32.2632 29.9743 32.1331 29.924 32.0118C29.8738 31.8904 29.8001 31.7801 29.7073 31.6873C29.6144 31.5944 29.5041 31.5207 29.3828 31.4705C29.2614 31.4203 29.1313 31.3945 29 31.3945ZM23 37.3945C21.8479 37.393 20.7315 36.9944 19.839 36.2657C18.9466 35.5371 18.3326 34.5231 18.1006 33.3945H27.8994C27.6674 34.5231 27.0534 35.5371 26.161 36.2657C25.2685 36.9944 24.1521 37.393 23 37.3945Z" fill="white"/>
<path d="M16.8321 27.9492C16.9658 27.7646 17.1414 27.6143 17.3444 27.5107C17.5474 27.4071 17.7721 27.353 18.0001 27.353C18.228 27.353 18.4527 27.4071 18.6557 27.5107C18.8588 27.6143 19.0343 27.7646 19.168 27.9492C19.2405 28.0594 19.334 28.1543 19.4432 28.2282C19.5524 28.3021 19.6751 28.3537 19.8044 28.38C19.9336 28.4063 20.0668 28.4068 20.1962 28.3814C20.3256 28.3561 20.4488 28.3053 20.5585 28.2322C20.6682 28.159 20.7624 28.0649 20.8356 27.9552C20.9088 27.8455 20.9596 27.7223 20.985 27.5929C21.0105 27.4635 21.01 27.3304 20.9838 27.2011C20.9575 27.0719 20.906 26.9491 20.8321 26.8398C20.5213 26.3736 20.1001 25.9913 19.6061 25.7269C19.1121 25.4626 18.5604 25.3242 18.0001 25.3242C17.4397 25.3242 16.8881 25.4626 16.394 25.7269C15.9 25.9913 15.4789 26.3736 15.168 26.8398C15.0941 26.9491 15.0426 27.0719 15.0163 27.2011C14.9901 27.3304 14.9897 27.4635 15.0151 27.5929C15.0405 27.7223 15.0913 27.8455 15.1645 27.9552C15.2377 28.0649 15.3319 28.159 15.4416 28.2322C15.5514 28.3053 15.6745 28.3561 15.8039 28.3814C15.9333 28.4068 16.0665 28.4063 16.1957 28.38C16.325 28.3537 16.4477 28.3021 16.557 28.2282C16.6662 28.1543 16.7597 28.0594 16.8321 27.9492Z" fill="white"/>
<path d="M26.8321 27.9492C26.9658 27.7646 27.1414 27.6143 27.3444 27.5107C27.5474 27.4071 27.7721 27.353 28.0001 27.353C28.228 27.353 28.4527 27.4071 28.6557 27.5107C28.8588 27.6143 29.0343 27.7646 29.168 27.9492C29.316 28.1679 29.5444 28.3193 29.8035 28.3702C30.0626 28.4211 30.3313 28.3675 30.551 28.221C30.7707 28.0745 30.9236 27.8471 30.9763 27.5883C31.0289 27.3296 30.9771 27.0605 30.8321 26.8398C30.5213 26.3736 30.1001 25.9913 29.6061 25.7269C29.1121 25.4626 28.5604 25.3242 28.0001 25.3242C27.4397 25.3242 26.8881 25.4626 26.394 25.7269C25.9 25.9913 25.4789 26.3736 25.168 26.8398C25.0941 26.9491 25.0426 27.0719 25.0163 27.2011C24.9901 27.3304 24.9897 27.4635 25.0151 27.5929C25.0405 27.7223 25.0913 27.8455 25.1645 27.9552C25.2377 28.0649 25.3319 28.159 25.4416 28.2322C25.5514 28.3053 25.6745 28.3561 25.8039 28.3814C25.9333 28.4068 26.0665 28.4063 26.1957 28.38C26.325 28.3537 26.4477 28.3021 26.557 28.2282C26.6662 28.1543 26.7597 28.0594 26.8321 27.9492Z" fill="white"/>
</svg>
