<svg width="62" height="65" viewBox="0 0 62 65" fill="none" xmlns="http://www.w3.org/2000/svg">
<path d="M61.707 29.687L60.0146 27.9942C60.4629 27.4839 60.7725 26.8668 60.9136 26.2023C61.0547 25.5378 61.0226 24.8481 60.8203 24.1996C60.618 23.5511 60.2523 22.9655 59.7585 22.499C59.2646 22.0326 58.659 21.701 58 21.536V14.394C57.9946 14.2046 57.9379 14.0201 57.8359 13.8603C57.7339 13.7006 57.5905 13.5715 57.4209 13.4868L29.4209 0.486814C29.2889 0.426014 29.1453 0.394531 29 0.394531C28.8547 0.394531 28.7111 0.426014 28.5791 0.486814L0.579104 13.4868C0.406134 13.5671 0.259719 13.6952 0.157116 13.8559C0.0545138 14.0166 0 14.2034 0 14.394C0 14.5847 0.0545138 14.7715 0.157116 14.9322C0.259719 15.0929 0.406134 15.221 0.579104 15.3013L13 21.0681V33.394C13 33.5844 13.0543 33.7708 13.1565 33.9313C13.2587 34.0918 13.4047 34.2198 13.5772 34.3003L28.5772 41.3003C28.7096 41.362 28.8539 41.394 29 41.394C29.1461 41.394 29.2904 41.362 29.4229 41.3003L44.4229 34.3003C44.5953 34.2198 44.7413 34.0918 44.8435 33.9313C44.9458 33.7708 45 33.5844 45 33.394V21.0681L56 15.961V21.536C55.341 21.701 54.7355 22.0326 54.2416 22.499C53.7477 22.9654 53.382 23.551 53.1797 24.1996C52.9774 24.8481 52.9453 25.5377 53.0864 26.2022C53.2275 26.8667 53.5371 27.4838 53.9854 27.9942L52.293 29.687C52.2001 29.7799 52.1264 29.8901 52.0761 30.0114C52.0259 30.1327 52 30.2627 52 30.394V40.394C52 40.5254 52.0258 40.6554 52.0761 40.7768C52.1263 40.8981 52.2 41.0084 52.2928 41.1012C52.3857 41.1941 52.4959 41.2677 52.6173 41.318C52.7386 41.3682 52.8687 41.3941 53 41.394H61C61.1313 41.3941 61.2614 41.3682 61.3827 41.318C61.5041 41.2677 61.6143 41.1941 61.7072 41.1012C61.8001 41.0084 61.8737 40.8981 61.924 40.7768C61.9742 40.6554 62 40.5254 62 40.394V30.394C62 30.2627 61.9741 30.1327 61.9239 30.0114C61.8736 29.8901 61.7999 29.7799 61.707 29.687ZM29 2.49658L52.4716 13.394H29C28.7348 13.394 28.4804 13.4994 28.2929 13.6869C28.1054 13.8745 28 14.1288 28 14.394C28 14.6593 28.1054 14.9136 28.2929 15.1012C28.4804 15.2887 28.7348 15.394 29 15.394H52.4716L29 26.2915L3.37451 14.394L29 2.49658ZM29 39.2905L15 32.7573V28.9643L28.5772 35.3003C28.7096 35.3621 28.8539 35.3941 29 35.3941C29.1461 35.3941 29.2904 35.3621 29.4229 35.3003L43 28.9643V32.7573L29 39.2905ZM43 26.7571L29 33.2905L15 26.7571V21.9967L28.5791 28.3013C28.711 28.3624 28.8546 28.394 29 28.394C29.1454 28.394 29.289 28.3624 29.4209 28.3013L43 21.9967V26.7571ZM57 23.394C57.3956 23.394 57.7822 23.5113 58.1111 23.7311C58.44 23.9509 58.6964 24.2632 58.8478 24.6287C58.9991 24.9941 59.0387 25.3963 58.9616 25.7842C58.8844 26.1722 58.6939 26.5286 58.4142 26.8083C58.1345 27.088 57.7781 27.2784 57.3902 27.3556C57.0022 27.4328 56.6001 27.3932 56.2346 27.2418C55.8692 27.0904 55.5568 26.8341 55.3371 26.5052C55.1173 26.1763 55 25.7896 55 25.394C55.0006 24.8638 55.2115 24.3554 55.5865 23.9805C55.9614 23.6056 56.4698 23.3947 57 23.394ZM60 39.394H54V30.8081L55.6611 29.1466C56.5232 29.4765 57.4768 29.4765 58.3389 29.1466L60 30.8081V39.394Z" fill="#062B48"/>
<path d="M49 42.394C48.9525 42.3939 48.905 42.3972 48.8579 42.4038L48.3677 42.4741L48.3645 42.4753L48.3613 42.4751L34.7871 44.5142C34.6236 44.1792 34.3695 43.8968 34.0536 43.6988C33.7378 43.5008 33.3728 43.3952 33 43.394H25C24.6272 43.3952 24.2622 43.5008 23.9464 43.6988C23.6305 43.8968 23.3764 44.1792 23.2129 44.5142L9.63232 42.4741L9.14209 42.4038C9.09502 42.3972 9.04754 42.3939 9 42.394C6.14941 42.394 4 46.6929 4 52.394C4 58.0952 6.14941 62.394 9 62.394C9.04754 62.3942 9.09502 62.3909 9.14209 62.3843L23 60.3055V63.394C23 63.5575 23.0401 63.7184 23.1167 63.8628C23.1933 64.0072 23.3041 64.1306 23.4395 64.2222C23.5748 64.3138 23.7305 64.3709 23.893 64.3884C24.0555 64.406 24.2198 64.3834 24.3716 64.3228L29 62.4712L33.6284 64.3228C33.7802 64.3834 33.9445 64.406 34.107 64.3884C34.2695 64.3709 34.4252 64.3138 34.5605 64.2222C34.6959 64.1306 34.8067 64.0072 34.8833 63.8628C34.9599 63.7184 35 63.5575 35 63.394V60.3058L48.3613 62.313L48.3658 62.3133L48.3677 62.314C48.4842 62.3307 48.8848 62.394 49 62.394C51.8506 62.394 54 58.0952 54 52.394C54 46.6929 51.8506 42.394 49 42.394ZM9.34814 60.3335L8.94385 60.3921C7.72314 60.2993 6 57.2036 6 52.394C6 47.5845 7.72314 44.4888 8.94385 44.396L23 46.5055V58.2827L9.34814 60.3335ZM33 61.9175L29.3716 60.4653C29.133 60.3703 28.867 60.3703 28.6284 60.4653L25 61.9175V45.394H33V61.9175ZM35 58.2828V46.5053L45.606 44.9116C44.4695 47.2378 43.9182 49.8064 44 52.394C43.9182 54.9817 44.4695 57.5503 45.606 59.8765L35 58.2828ZM48 59.8344C47.0393 58.8 46.1872 56.4086 46.029 53.394H47C47.2651 53.3943 47.5193 53.4998 47.7068 53.6872C47.8943 53.8747 47.9997 54.1289 48 54.394V59.8344ZM50 59.811V54.394C49.9991 53.5987 49.6828 52.8361 49.1204 52.2737C48.5579 51.7113 47.7954 51.3949 47 51.394H46.029C46.2273 47.6135 47.5183 44.8147 48.7429 44.4414L49.0561 44.396C50.2769 44.4888 52 47.5845 52 52.394C52 56.0386 51.0106 58.6956 50 59.811Z" fill="#062B48"/>
</svg>
