<svg width="272" height="64" viewBox="0 0 272 64" fill="none" xmlns="http://www.w3.org/2000/svg">
<path d="M81.28 25.999V11.899H84.96V25.999H81.28ZM87.5105 25.999V11.899H90.2105L97.2505 20.679H96.6905V11.899H100.09V25.999H97.4105L90.3705 17.199H90.9305V25.999H87.5105ZM102.667 25.999V11.899H105.367L112.407 20.679H111.847V11.899H115.247V25.999H112.567L105.527 17.199H106.087V25.999H102.667ZM124.623 26.219C123.556 26.219 122.583 26.0457 121.703 25.699C120.823 25.3524 120.063 24.859 119.423 24.219C118.796 23.5657 118.31 22.7924 117.963 21.899C117.63 21.0057 117.463 20.019 117.463 18.939C117.463 17.8457 117.63 16.8524 117.963 15.959C118.31 15.0657 118.796 14.299 119.423 13.659C120.063 13.019 120.823 12.5324 121.703 12.199C122.583 11.8524 123.556 11.679 124.623 11.679C125.69 11.679 126.663 11.8524 127.543 12.199C128.423 12.5324 129.176 13.019 129.803 13.659C130.443 14.299 130.93 15.0657 131.263 15.959C131.61 16.839 131.783 17.8257 131.783 18.919C131.783 20.0257 131.61 21.0257 131.263 21.919C130.93 22.8124 130.443 23.5857 129.803 24.239C129.176 24.879 128.423 25.3724 127.543 25.719C126.663 26.0524 125.69 26.219 124.623 26.219ZM124.623 23.139C125.33 23.139 125.93 22.9724 126.423 22.639C126.916 22.3057 127.296 21.8257 127.563 21.199C127.83 20.5724 127.963 19.819 127.963 18.939C127.963 18.059 127.83 17.3057 127.563 16.679C127.31 16.0524 126.93 15.579 126.423 15.259C125.93 14.9257 125.33 14.759 124.623 14.759C123.93 14.759 123.33 14.9257 122.823 15.259C122.33 15.579 121.95 16.0524 121.683 16.679C121.416 17.3057 121.283 18.059 121.283 18.939C121.283 19.819 121.41 20.5724 121.663 21.199C121.93 21.8257 122.316 22.3057 122.823 22.639C123.33 22.9724 123.93 23.139 124.623 23.139ZM138.265 25.999L131.845 11.899H135.765L140.365 22.579H139.245L143.845 11.899H147.625L141.185 25.999H138.265ZM145.4 25.999L152 11.899H154.9L161.5 25.999H157.82L156.16 22.119L157.56 23.139H149.32L150.74 22.119L149.08 25.999H145.4ZM153.42 15.739L151.1 21.279L150.54 20.319H156.36L155.8 21.279L153.46 15.739H153.42ZM164.092 25.999V14.899H159.612V11.899H172.252V14.899H167.772V25.999H164.092ZM173.643 25.999V11.899H183.603V14.739H177.163V17.419H183.143V20.259H177.163V23.159H183.603V25.999H173.643ZM191.651 25.999V11.899H201.491V14.739H195.331V17.579H201.051V20.399H195.331V25.999H191.651ZM209.473 26.219C207.42 26.219 205.846 25.699 204.753 24.659C203.673 23.619 203.133 22.0657 203.133 19.999V11.899H206.813V20.039C206.813 21.0657 207.04 21.839 207.493 22.359C207.946 22.879 208.606 23.139 209.473 23.139C210.326 23.139 210.98 22.879 211.433 22.359C211.886 21.839 212.113 21.0657 212.113 20.039V11.899H215.733V19.999C215.733 22.0657 215.2 23.619 214.133 24.659C213.08 25.699 211.526 26.219 209.473 26.219ZM221.514 25.999V14.899H217.034V11.899H229.674V14.899H225.194V25.999H221.514ZM237.305 26.219C235.252 26.219 233.678 25.699 232.585 24.659C231.505 23.619 230.965 22.0657 230.965 19.999V11.899H234.645V20.039C234.645 21.0657 234.872 21.839 235.325 22.359C235.778 22.879 236.438 23.139 237.305 23.139C238.158 23.139 238.812 22.879 239.265 22.359C239.718 21.839 239.945 21.0657 239.945 20.039V11.899H243.565V19.999C243.565 22.0657 243.032 23.619 241.965 24.659C240.912 25.699 239.358 26.219 237.305 26.219ZM246.026 25.999V11.899H252.806C254.406 11.899 255.639 12.2924 256.506 13.079C257.386 13.8524 257.826 14.9324 257.826 16.319C257.826 17.2124 257.626 17.9924 257.226 18.659C256.839 19.3124 256.273 19.819 255.526 20.179C254.793 20.5257 253.886 20.699 252.806 20.699L252.966 20.339H253.926C254.499 20.339 255.006 20.479 255.446 20.759C255.886 21.0257 256.253 21.439 256.546 21.999L258.746 25.999H254.706L252.266 21.519C252.159 21.319 252.033 21.1657 251.886 21.059C251.739 20.9524 251.573 20.8724 251.386 20.819C251.213 20.7657 251.019 20.739 250.806 20.739H249.706V25.999H246.026ZM249.706 18.139H252.146C252.853 18.139 253.393 17.999 253.766 17.719C254.139 17.439 254.326 17.0057 254.326 16.419C254.326 15.859 254.139 15.439 253.766 15.159C253.393 14.8657 252.853 14.719 252.146 14.719H249.706V18.139ZM260.147 25.999V11.899H270.107V14.739H263.667V17.419H269.647V20.259H263.667V23.159H270.107V25.999H260.147ZM80.24 49.999L85.232 38.719H86.496L91.488 49.999H89.968L88.592 46.799L89.28 47.183H82.432L83.12 46.799L81.76 49.999H80.24ZM85.84 40.399L83.344 46.303L82.96 45.967H88.752L88.384 46.303L85.872 40.399H85.84ZM96.681 50.143C96.0943 50.143 95.5397 50.095 95.017 49.999C94.4943 49.8924 94.0143 49.743 93.577 49.551C93.1397 49.3484 92.745 49.103 92.393 48.815L92.905 47.631C93.257 47.8977 93.625 48.127 94.009 48.319C94.393 48.5004 94.8037 48.639 95.241 48.735C95.6783 48.8204 96.1583 48.863 96.681 48.863C97.6197 48.863 98.3077 48.6924 98.745 48.351C99.193 48.0097 99.417 47.5617 99.417 47.007C99.417 46.6977 99.3477 46.4364 99.209 46.223C99.0703 46.0097 98.8463 45.8284 98.537 45.679C98.2277 45.5297 97.8223 45.407 97.321 45.311L95.625 44.959C94.6223 44.7457 93.8703 44.3937 93.369 43.903C92.8783 43.4124 92.633 42.7564 92.633 41.935C92.633 41.263 92.809 40.6764 93.161 40.175C93.5237 39.663 94.0143 39.2684 94.633 38.991C95.2623 38.7137 95.9877 38.575 96.809 38.575C97.321 38.575 97.8063 38.6284 98.265 38.735C98.7237 38.831 99.1503 38.9857 99.545 39.199C99.9397 39.4017 100.286 39.6524 100.585 39.951L100.089 41.087C99.6197 40.6604 99.1183 40.351 98.585 40.159C98.0517 39.9564 97.4543 39.855 96.793 39.855C96.249 39.855 95.7743 39.9404 95.369 40.111C94.9743 40.2817 94.665 40.5217 94.441 40.831C94.2277 41.1297 94.121 41.4817 94.121 41.887C94.121 42.3777 94.2703 42.7617 94.569 43.039C94.8677 43.3164 95.369 43.5297 96.073 43.679L97.753 44.015C98.8197 44.239 99.609 44.5857 100.121 45.055C100.644 45.5137 100.905 46.1324 100.905 46.911C100.905 47.551 100.734 48.1164 100.393 48.607C100.052 49.087 99.561 49.4657 98.921 49.743C98.2917 50.0097 97.545 50.143 96.681 50.143ZM106.572 50.143C105.985 50.143 105.43 50.095 104.908 49.999C104.385 49.8924 103.905 49.743 103.468 49.551C103.03 49.3484 102.636 49.103 102.284 48.815L102.796 47.631C103.148 47.8977 103.516 48.127 103.9 48.319C104.284 48.5004 104.694 48.639 105.132 48.735C105.569 48.8204 106.049 48.863 106.572 48.863C107.51 48.863 108.198 48.6924 108.636 48.351C109.084 48.0097 109.308 47.5617 109.308 47.007C109.308 46.6977 109.238 46.4364 109.1 46.223C108.961 46.0097 108.737 45.8284 108.428 45.679C108.118 45.5297 107.713 45.407 107.212 45.311L105.516 44.959C104.513 44.7457 103.761 44.3937 103.26 43.903C102.769 43.4124 102.524 42.7564 102.524 41.935C102.524 41.263 102.7 40.6764 103.052 40.175C103.414 39.663 103.905 39.2684 104.524 38.991C105.153 38.7137 105.878 38.575 106.7 38.575C107.212 38.575 107.697 38.6284 108.156 38.735C108.614 38.831 109.041 38.9857 109.436 39.199C109.83 39.4017 110.177 39.6524 110.476 39.951L109.98 41.087C109.51 40.6604 109.009 40.351 108.476 40.159C107.942 39.9564 107.345 39.855 106.684 39.855C106.14 39.855 105.665 39.9404 105.26 40.111C104.865 40.2817 104.556 40.5217 104.332 40.831C104.118 41.1297 104.012 41.4817 104.012 41.887C104.012 42.3777 104.161 42.7617 104.46 43.039C104.758 43.3164 105.26 43.5297 105.964 43.679L107.644 44.015C108.71 44.239 109.5 44.5857 110.012 45.055C110.534 45.5137 110.796 46.1324 110.796 46.911C110.796 47.551 110.625 48.1164 110.284 48.607C109.942 49.087 109.452 49.4657 108.812 49.743C108.182 50.0097 107.436 50.143 106.572 50.143ZM117.582 50.143C116.782 50.143 116.062 50.0097 115.422 49.743C114.782 49.4764 114.233 49.087 113.774 48.575C113.316 48.063 112.964 47.455 112.718 46.751C112.473 46.0364 112.35 45.2364 112.35 44.351C112.35 43.4657 112.473 42.671 112.718 41.967C112.964 41.2524 113.31 40.6444 113.758 40.143C114.217 39.631 114.766 39.2417 115.406 38.975C116.057 38.7084 116.782 38.575 117.582 38.575C118.382 38.575 119.102 38.7084 119.742 38.975C120.382 39.2417 120.932 39.6257 121.39 40.127C121.849 40.6284 122.196 41.2364 122.43 41.951C122.676 42.655 122.798 43.4497 122.798 44.335C122.798 45.2204 122.676 46.0204 122.43 46.735C122.185 47.4497 121.833 48.063 121.374 48.575C120.926 49.087 120.382 49.4764 119.742 49.743C119.102 50.0097 118.382 50.143 117.582 50.143ZM117.582 48.831C118.35 48.831 119.006 48.655 119.55 48.303C120.094 47.951 120.51 47.439 120.798 46.767C121.097 46.095 121.246 45.2897 121.246 44.351C121.246 43.4017 121.102 42.5964 120.814 41.935C120.526 41.263 120.11 40.7564 119.566 40.415C119.022 40.063 118.361 39.887 117.582 39.887C116.814 39.887 116.153 40.063 115.598 40.415C115.054 40.7564 114.638 41.263 114.35 41.935C114.062 42.5964 113.918 43.4017 113.918 44.351C113.918 45.2897 114.062 46.095 114.35 46.767C114.638 47.439 115.054 47.951 115.598 48.303C116.153 48.655 116.814 48.831 117.582 48.831ZM130.07 50.143C128.95 50.143 127.99 49.9084 127.19 49.439C126.39 48.9697 125.771 48.303 125.334 47.439C124.907 46.5644 124.694 45.535 124.694 44.351C124.694 43.167 124.907 42.143 125.334 41.279C125.771 40.415 126.39 39.7484 127.19 39.279C127.99 38.8097 128.95 38.575 130.07 38.575C130.838 38.575 131.553 38.6977 132.214 38.943C132.886 39.1777 133.446 39.5297 133.894 39.999L133.35 41.183C132.859 40.7457 132.353 40.4257 131.83 40.223C131.307 40.0204 130.731 39.919 130.102 39.919C128.865 39.919 127.915 40.303 127.254 41.071C126.603 41.839 126.278 42.9324 126.278 44.351C126.278 45.7697 126.603 46.8684 127.254 47.647C127.915 48.415 128.865 48.799 130.102 48.799C130.731 48.799 131.307 48.6977 131.83 48.495C132.353 48.2924 132.859 47.9724 133.35 47.535L133.894 48.719C133.446 49.1777 132.886 49.5297 132.214 49.775C131.553 50.0204 130.838 50.143 130.07 50.143ZM135.891 49.999V38.719H137.379V49.999H135.891ZM138.959 49.999L143.951 38.719H145.215L150.207 49.999H148.687L147.311 46.799L147.999 47.183H141.151L141.839 46.799L140.479 49.999H138.959ZM144.559 40.399L142.063 46.303L141.679 45.967H147.471L147.103 46.303L144.591 40.399H144.559ZM153.331 49.999V39.983H149.283V38.719H158.867V39.983H154.819V49.999H153.331ZM160.298 49.999V38.719H161.786V49.999H160.298ZM169.301 50.143C168.501 50.143 167.781 50.0097 167.141 49.743C166.501 49.4764 165.952 49.087 165.493 48.575C165.034 48.063 164.682 47.455 164.437 46.751C164.192 46.0364 164.069 45.2364 164.069 44.351C164.069 43.4657 164.192 42.671 164.437 41.967C164.682 41.2524 165.029 40.6444 165.477 40.143C165.936 39.631 166.485 39.2417 167.125 38.975C167.776 38.7084 168.501 38.575 169.301 38.575C170.101 38.575 170.821 38.7084 171.461 38.975C172.101 39.2417 172.65 39.6257 173.109 40.127C173.568 40.6284 173.914 41.2364 174.149 41.951C174.394 42.655 174.517 43.4497 174.517 44.335C174.517 45.2204 174.394 46.0204 174.149 46.735C173.904 47.4497 173.552 48.063 173.093 48.575C172.645 49.087 172.101 49.4764 171.461 49.743C170.821 50.0097 170.101 50.143 169.301 50.143ZM169.301 48.831C170.069 48.831 170.725 48.655 171.269 48.303C171.813 47.951 172.229 47.439 172.517 46.767C172.816 46.095 172.965 45.2897 172.965 44.351C172.965 43.4017 172.821 42.5964 172.533 41.935C172.245 41.263 171.829 40.7564 171.285 40.415C170.741 40.063 170.08 39.887 169.301 39.887C168.533 39.887 167.872 40.063 167.317 40.415C166.773 40.7564 166.357 41.263 166.069 41.935C165.781 42.5964 165.637 43.4017 165.637 44.351C165.637 45.2897 165.781 46.095 166.069 46.767C166.357 47.439 166.773 47.951 167.317 48.303C167.872 48.655 168.533 48.831 169.301 48.831ZM176.829 49.999V38.719H177.965L184.989 48.031H184.589V38.719H185.981V49.999H184.861L177.837 40.671H178.205V49.999H176.829Z" fill="white"/>
<circle cx="32" cy="31.999" r="32" fill="white"/>
<path d="M40.065 36.0919L42.2976 26.0454C27.0416 27.9059 8.80904 36.8361 22.9487 53.9524C19.0789 41.7477 32.7472 36.9601 40.065 36.0919Z" fill="#046FFB"/>
<path d="M44.1578 21.5803L46.5272 10.4175C29.2741 11.9059 19.5997 27.9059 20.716 29.0221C26.6695 23.8128 39.4446 21.5803 44.1578 21.5803Z" fill="#046FFB"/>
</svg>
