<svg width="64" height="61" viewBox="0 0 64 61" fill="none" xmlns="http://www.w3.org/2000/svg">
<path d="M57 44.3945H54V28.0947C54 27.8295 53.8946 27.5752 53.7071 27.3876C53.5196 27.2001 53.2652 27.0947 53 27.0947C52.7348 27.0947 52.4804 27.2001 52.2929 27.3876C52.1054 27.5752 52 27.8295 52 28.0947V44.3945H27C26.2046 44.3954 25.4421 44.7118 24.8796 45.2742C24.3172 45.8366 24.0009 46.5991 24 47.3945V53.3945C24 54.7206 23.4732 55.9924 22.5355 56.9301C21.5979 57.8677 20.3261 58.3945 19 58.3945C17.6739 58.3945 16.4021 57.8677 15.4645 56.9301C14.5268 55.9924 14 54.7206 14 53.3945V7.39453C14.0001 6.46238 13.8134 5.53965 13.4509 4.68087C13.0884 3.82209 12.5575 3.04467 11.8895 2.39453H47C48.0316 2.39488 49.0379 2.71449 49.8807 3.3095C50.7234 3.9045 51.3614 4.74575 51.707 5.71777C51.7758 5.91287 51.9034 6.0818 52.0723 6.20127C52.2412 6.32074 52.443 6.38486 52.6499 6.38477C52.7633 6.38458 52.8758 6.36543 52.9829 6.32813C53.233 6.2397 53.4377 6.05557 53.5521 5.81622C53.6664 5.57687 53.6811 5.3019 53.5927 5.05177C53.109 3.68988 52.2156 2.51109 51.0352 1.67722C49.8548 0.843353 48.4452 0.395286 47 0.394531H7C5.14415 0.396696 3.36493 1.13489 2.05264 2.44718C0.740358 3.75946 0.0021649 5.53868 0 7.39453V15.3945C0.000868196 16.1899 0.317218 16.9525 0.879639 17.5149C1.44206 18.0773 2.20462 18.3937 3 18.3945H12V53.3945C12.0022 55.2504 12.7404 57.0296 14.0526 58.3419C15.3649 59.6542 17.1441 60.3924 19 60.3945H53C54.8559 60.3924 56.6351 59.6542 57.9474 58.3419C59.2596 57.0296 59.9978 55.2504 60 53.3945V47.3945C59.9991 46.5991 59.6828 45.8366 59.1204 45.2742C58.5579 44.7118 57.7954 44.3954 57 44.3945ZM2 15.3945V7.39453C2 6.06845 2.52678 4.79668 3.46447 3.859C4.40215 2.92132 5.67392 2.39453 7 2.39453C8.32608 2.39453 9.59785 2.92132 10.5355 3.859C11.4732 4.79668 12 6.06845 12 7.39453V16.3945H3C2.73486 16.3943 2.48066 16.2888 2.29319 16.1013C2.10571 15.9139 2.00026 15.6597 2 15.3945ZM58 53.3945C57.9984 54.7201 57.4712 55.991 56.5338 56.9283C55.5965 57.8657 54.3256 58.393 53 58.3945H23.8945C24.5614 57.7438 25.0913 56.9662 25.4529 56.1075C25.8145 55.2487 26.0005 54.3263 26 53.3945V47.3945C26.0003 47.1294 26.1057 46.8752 26.2932 46.6877C26.4807 46.5002 26.7349 46.3948 27 46.3945H57C57.2651 46.3948 57.5193 46.5002 57.7068 46.6877C57.8943 46.8752 57.9997 47.1294 58 47.3945V53.3945Z" fill="#062B48"/>
<path d="M60.0458 4.39453C59.1401 4.39536 58.262 4.70621 57.5575 5.27539C51.0085 10.5767 46.5158 14.2135 40.5751 19.0225C38.5114 20.7053 36.9948 22.9639 36.2183 25.5111L30.8353 26.4082C30.6297 26.4425 30.44 26.5402 30.2927 26.6876C30.1453 26.8351 30.0477 27.0249 30.0135 27.2305L28.0135 39.2305C27.9897 39.3737 27.9974 39.5204 28.036 39.6604C28.0746 39.8003 28.1432 39.9302 28.2371 40.041C28.3309 40.1518 28.4478 40.2408 28.5795 40.3018C28.7112 40.3629 28.8547 40.3945 28.9999 40.3945C29.055 40.3943 29.11 40.3898 29.1644 40.3809L41.1644 38.3809C41.37 38.3466 41.5598 38.2489 41.7071 38.1014C41.8544 37.954 41.952 37.7642 41.9862 37.5586L42.8834 32.1757C45.4307 31.3997 47.6894 29.8828 49.3715 27.8184C57.9625 17.206 57.7478 17.4714 63.1185 10.8369C63.5886 10.2566 63.8846 9.55496 63.9724 8.81332C64.0603 8.07168 63.9362 7.32034 63.6147 6.64627C63.2932 5.97219 62.7874 5.40296 62.1558 5.00446C61.5242 4.60596 60.7926 4.39449 60.0458 4.39453ZM51.2321 22.3416L46.0526 17.1621L53.8941 10.8145L57.6223 14.4478L51.2321 22.3416ZM31.9136 37.8948L35.7069 34.1015C35.8916 33.9134 35.9946 33.66 35.9934 33.3964C35.9922 33.1328 35.8869 32.8803 35.7005 32.6939C35.5141 32.5075 35.2616 32.4022 34.998 32.4011C34.7344 32.3999 34.481 32.5028 34.2929 32.6875L30.4991 36.4813L31.8691 28.2637L36.6567 27.4659L38.7929 29.6015L40.929 31.7377L40.1308 36.5254L31.9136 37.8948ZM47.8168 26.5605C46.386 28.3199 44.4636 29.6132 42.2948 30.2754L38.119 26.0996C38.7813 23.9307 40.0746 22.0082 41.8339 20.5772L44.4897 18.4273L49.9669 23.9045L47.8168 26.5605ZM61.5643 9.57812L58.8855 12.8873L55.4589 9.54785L58.8163 6.83008C59.1915 6.52625 59.666 6.37211 60.1481 6.39738C60.6303 6.42266 61.086 6.62557 61.4274 6.96697C61.7688 7.30837 61.9717 7.7641 61.997 8.24625C62.0223 8.72841 61.8682 9.20289 61.5643 9.57812Z" fill="#062B48"/>
<path d="M24 38.3945H19C18.7348 38.3945 18.4804 38.4999 18.2929 38.6874C18.1054 38.875 18 39.1293 18 39.3945C18 39.6597 18.1054 39.9141 18.2929 40.1016C18.4804 40.2892 18.7348 40.3945 19 40.3945H24C24.2652 40.3945 24.5196 40.2892 24.7071 40.1016C24.8946 39.9141 25 39.6597 25 39.3945C25 39.1293 24.8946 38.875 24.7071 38.6874C24.5196 38.4999 24.2652 38.3945 24 38.3945Z" fill="#062B48"/>
<path d="M24 32.3945H19C18.7348 32.3945 18.4804 32.4999 18.2929 32.6874C18.1054 32.875 18 33.1293 18 33.3945C18 33.6597 18.1054 33.9141 18.2929 34.1016C18.4804 34.2892 18.7348 34.3945 19 34.3945H24C24.2652 34.3945 24.5196 34.2892 24.7071 34.1016C24.8946 33.9141 25 33.6597 25 33.3945C25 33.1293 24.8946 32.875 24.7071 32.6874C24.5196 32.4999 24.2652 32.3945 24 32.3945Z" fill="#062B48"/>
<path d="M24 26.3945H19C18.7348 26.3945 18.4804 26.4999 18.2929 26.6874C18.1054 26.875 18 27.1293 18 27.3945C18 27.6597 18.1054 27.9141 18.2929 28.1016C18.4804 28.2892 18.7348 28.3945 19 28.3945H24C24.2652 28.3945 24.5196 28.2892 24.7071 28.1016C24.8946 27.9141 25 27.6597 25 27.3945C25 27.1293 24.8946 26.875 24.7071 26.6874C24.5196 26.4999 24.2652 26.3945 24 26.3945Z" fill="#062B48"/>
<path d="M34 21.3945C34 21.2632 33.9742 21.1331 33.924 21.0118C33.8737 20.8905 33.8 20.7802 33.7072 20.6873C33.6143 20.5945 33.5041 20.5208 33.3827 20.4706C33.2614 20.4203 33.1313 20.3945 33 20.3945H19C18.7348 20.3945 18.4804 20.4999 18.2929 20.6874C18.1054 20.875 18 21.1293 18 21.3945C18 21.6597 18.1054 21.9141 18.2929 22.1016C18.4804 22.2892 18.7348 22.3945 19 22.3945H33C33.1313 22.3946 33.2614 22.3687 33.3827 22.3185C33.5041 22.2682 33.6143 22.1946 33.7072 22.1017C33.8 22.0088 33.8737 21.8986 33.924 21.7773C33.9742 21.6559 34 21.5259 34 21.3945Z" fill="#062B48"/>
<path d="M42 15.3945V7.39453C42 7.2632 41.9742 7.13315 41.924 7.01181C41.8737 6.89047 41.8 6.78021 41.7072 6.68735C41.6143 6.59448 41.5041 6.52082 41.3827 6.47058C41.2614 6.42034 41.1313 6.3945 41 6.39453H19C18.8687 6.3945 18.7386 6.42034 18.6173 6.47058C18.4959 6.52082 18.3857 6.59448 18.2928 6.68735C18.2 6.78021 18.1263 6.89047 18.0761 7.01181C18.0258 7.13315 18 7.2632 18 7.39453V15.3945C18 15.5259 18.0258 15.6559 18.0761 15.7773C18.1263 15.8986 18.2 16.0089 18.2928 16.1017C18.3857 16.1946 18.4959 16.2682 18.6173 16.3185C18.7386 16.3687 18.8687 16.3946 19 16.3945H41C41.1313 16.3946 41.2614 16.3687 41.3827 16.3185C41.5041 16.2682 41.6143 16.1946 41.7072 16.1017C41.8 16.0089 41.8737 15.8986 41.924 15.7773C41.9742 15.6559 42 15.5259 42 15.3945ZM40 14.3945H20V8.39453H40V14.3945Z" fill="#062B48"/>
</svg>
